# xmcd
#
# Track frame offsets:
#	150
#	17675
#	27937
#	42600
#	54975
#	75435
#	86292
#	96050
#	105832
#	123672
#
# Disc length: 1874 seconds
# Revision: 0
# Processed by: cddbd v1.5.2PL0 Copyright (c) Steve Scherf et al.
# Submitted via: dBpowerAMP V12.0
#
DISCID=6a07500a
DTITLE=Various Artist - A Joyful and Soulful Christmas
DYEAR=1997
DGENRE=Holiday
TTITLE0=New Edition - Happy Holidays to You
TTITLE1=The O'Jays - Christmas Ain't Christmas, New Years Ain't New Years Without the One You Love
TTITLE2=The Jets - I'll Be Home for Christmas
TTITLE3=Chuck Berry - Run Rudolph Run
TTITLE4=Bobby Bland - You Are My Christmas
TTITLE5=The Moonglows - Hey Santa Claus
TTITLE6=The Ramsey Lewis Trio - Winter Wonderland
TTITLE7=The Soul Stirrers - Christmas Means Love
TTITLE8=Kenny Burrell - The Little Drummer Boy
TTITLE9=The Rotary Connection - Silent Night
EXTD=
EXTT0=
EXTT1=
EXTT2=
EXTT3=
EXTT4=
EXTT5=
EXTT6=
EXTT7=
EXTT8=
EXTT9=
PLAYORDER=
